<svg width="60" height="60" viewBox="0 0 60 60" fill="none" xmlns="http://www.w3.org/2000/svg">
<path fill-rule="evenodd" clip-rule="evenodd" d="M30.4157 0.336317C30.5649 0.521426 31.0185 1.50697 31.4235 2.52695C32.5128 5.27022 32.1522 7.41081 30.1782 9.92189C29.5143 10.7664 29.0607 12.5051 29.2637 13.4287C29.3527 13.835 29.7149 14.8789 30.0683 15.7491C30.7542 17.4376 30.7354 17.7575 29.9502 17.7575C29.5864 17.7575 29.2309 17.2229 28.6216 15.7585C27.3097 12.6052 27.5081 11.3062 29.7978 8.05869C30.8451 6.57325 30.9051 4.59032 29.9696 2.38005C29.3662 0.954602 29.3382 0 29.8997 0C30.0341 0 30.2662 0.151477 30.4157 0.336317ZM39.0163 4.26342C40.1303 6.98544 39.7509 9.44755 37.8802 11.6341C37.0415 12.6146 36.9324 12.9151 36.9326 14.241C36.9326 15.088 37.1666 16.3552 37.4704 17.1551C38.193 19.0573 38.179 19.7033 37.4183 19.5925C36.543 19.4647 35.4892 16.762 35.4959 14.6634C35.5016 12.9894 36.2426 10.9082 37.0813 10.2119C38.4151 9.10424 38.6132 6.97145 37.6046 4.57391C36.8412 2.75941 36.7955 2.39781 37.2685 1.92212C37.6842 1.50401 38.1327 2.10454 39.0163 4.26342ZM23.5725 3.60882C24.8794 6.3537 24.8078 8.79671 23.3625 10.7888C22.9974 11.2922 22.5056 11.967 22.2692 12.2885C22.0328 12.6097 21.7763 13.5178 21.6989 14.3064C21.5849 15.4687 21.69 16.0337 22.2541 17.2945C23.095 19.1738 23.1235 19.6409 22.3972 19.6409C21.7266 19.6409 20.6203 17.4172 20.3654 15.5569C20.1387 13.9028 20.8352 11.6293 21.9933 10.2423C23.2547 8.7316 23.4454 7.34005 22.6798 5.23524C22.359 4.35356 22.0318 3.22703 21.953 2.7317C21.8298 1.95979 21.8809 1.84463 22.3122 1.92454C22.619 1.98158 23.1108 2.63888 23.5725 3.60882ZM30.6173 22.8712C31.0086 23.02 32.0148 23.7916 32.8532 24.5856C35.526 27.1171 36.5726 27.3619 39.8924 26.2319C41.8472 25.5668 41.8827 25.5647 42.8301 26.0506C43.5477 26.4186 44.06 27.0455 44.8648 28.5401C46.198 31.0162 47.2147 31.6464 49.7189 31.549C51.1658 31.4927 51.4492 31.5716 52.2734 32.2598L53.2006 33.0336L53.2904 35.98C53.3966 39.4624 53.6351 39.902 56.1608 41.2682C57.5244 42.006 57.8336 42.3157 58.2018 43.3128C58.4502 43.9862 58.8697 44.5746 59.1846 44.6911C60.4524 45.1604 60.2653 46.2848 58.4583 49.0544C56.2437 52.4488 52.5273 54.5304 48.0915 54.8611L45.9404 55.0215L45.789 56.7819C45.4988 60.1515 46.2176 59.9989 30.6262 59.9989H17.8494L16.9722 59.2149C16.1991 58.5237 16.079 58.2283 15.9596 56.7262L15.824 55.0215L12.5973 54.8417C10.0761 54.7013 9.00403 54.5151 7.69505 53.9894C4.20639 52.5884 1.48893 49.9826 0.271368 46.8702C-0.247063 45.5448 -0.0271067 44.8189 0.969422 44.5687C1.37626 44.4668 1.68011 44.1086 1.85032 43.5302C2.01139 42.9835 2.44942 42.4421 3.0012 42.108C3.49113 41.8115 4.39865 41.1996 5.01792 40.7487L6.14378 39.9286L6.2102 37.1165C6.24677 35.5697 6.34089 34.0283 6.41913 33.6906C6.66894 32.6147 8.04757 32.0203 10.3117 32.0125C12.7664 32.0039 13.1547 31.7448 14.3349 29.3268C15.3927 27.1593 16.0496 26.442 17.3274 26.0592C18.4866 25.7116 20.6144 25.9556 21.0549 26.4864C21.4561 26.9705 20.6443 27.8193 20.0245 27.5637C19.7846 27.465 19.1043 27.3245 18.5122 27.2516C17.1892 27.0891 16.7735 27.4868 15.4258 30.2031C14.1311 32.8124 13.5468 33.1923 10.5429 33.3764C8.86555 33.4791 8.04219 33.6441 7.85719 33.9145C7.70338 34.1391 7.6496 35.2592 7.73027 36.5582C7.93732 39.8918 7.18683 41.3573 4.59763 42.6762C3.89501 43.034 3.32038 43.4457 3.32038 43.5913C3.32038 43.7368 3.28999 43.9467 3.25315 44.0575C3.21632 44.1684 12.9469 44.3199 24.877 44.3938C36.8071 44.4678 46.6645 44.625 46.7826 44.7431C46.9003 44.8612 46.867 45.1639 46.7083 45.4157C46.4408 45.84 44.7701 45.8787 23.9288 45.9425C11.5588 45.9802 1.43811 46.076 1.43811 46.1551C1.43811 46.2339 1.69571 46.8038 2.01059 47.4212C2.85196 49.0719 5.19593 51.2197 7.27046 52.2416L9.09035 53.1381H30.0699H51.0494L52.3291 52.519C54.1449 51.6408 56.5908 49.5233 57.5906 47.9642C58.0601 47.2324 58.444 46.493 58.444 46.3208C58.444 46.0964 57.2359 46.0082 54.1597 46.0082C50.0279 46.0082 49.8692 45.9877 49.6942 45.4364C49.4132 44.5502 49.9577 44.4025 53.5208 44.3979C55.3929 44.3957 56.8696 44.2795 56.9638 44.1269C57.1953 43.7521 56.0955 42.7755 54.4665 41.9099C52.5418 40.8873 51.9459 39.6337 52.0026 36.7258C52.0575 33.8938 52.072 33.9823 51.4527 33.3626C51.0247 32.9343 50.5565 32.8245 49.1585 32.8245C48.1924 32.8245 47.0036 32.658 46.5166 32.4543C45.6301 32.0838 43.9237 30.2774 43.9237 29.7094C43.9237 29.0804 42.2987 27.1744 41.7623 27.1744C41.4627 27.1744 40.4654 27.4292 39.5455 27.7408C36.4876 28.7766 34.0581 28.0187 31.296 25.1673C29.9693 23.7978 29.239 23.8858 26.9122 25.6946C25.8654 26.5085 24.863 27.1744 24.6844 27.1744C24.1993 27.1744 23.6016 26.3632 23.9259 26.145C24.074 26.0452 24.629 25.6887 25.1593 25.3529C25.6893 25.0169 26.1937 24.5581 26.2798 24.3335C26.4339 23.932 28.9642 22.6083 29.5875 22.6032C29.7628 22.6016 30.2261 22.7224 30.6173 22.8712ZM32.0836 30.0826C32.0726 30.6767 30.8873 32.0174 30.3732 32.0174C29.6792 32.0174 29.6477 31.5546 30.275 30.5766C31.0828 29.3169 32.1033 29.0384 32.0836 30.0826ZM20.9056 30.5642C21.59 30.8271 22.5327 32.5423 22.1845 32.8907C21.4647 33.611 19.6848 31.8611 20.0825 30.8239C20.2632 30.3525 20.3133 30.3369 20.9056 30.5642ZM41.1936 33.1154C41.8341 33.9263 41.8171 34.7079 41.1589 34.7079C40.5751 34.7079 39.2629 33.1767 39.4436 32.7062C39.695 32.0502 40.5012 32.2388 41.1936 33.1154ZM13.3835 36.5582C13.6307 36.9583 12.3448 38.6041 11.7142 38.6953C10.935 38.8075 10.932 38.1671 11.7067 37.1186C12.277 36.3465 13.0859 36.0763 13.3835 36.5582ZM19.7701 39.2673C20.5429 40.386 20.5082 40.6271 19.5746 40.6271C18.9096 40.6271 18.1097 39.6039 18.1097 38.7531C18.1097 37.8572 18.9828 38.1276 19.7701 39.2673ZM47.6882 38.9864C47.6882 39.9068 45.2036 40.4718 44.879 39.6251C44.6314 38.9799 45.4152 38.4747 46.664 38.4747C47.4914 38.4747 47.6882 38.5731 47.6882 38.9864ZM30.6206 39.0243C30.8489 39.394 29.4896 41.1652 28.9779 41.1652C28.3376 41.1652 28.243 40.4501 28.7655 39.5649C29.2535 38.7383 30.2621 38.4443 30.6206 39.0243ZM38.6581 38.907C39.4578 39.214 39.1118 39.9682 37.9012 40.5563C36.6277 41.1757 36.3946 41.1246 36.3946 40.2275C36.3946 39.7467 37.0889 39.1788 38.1876 38.7609C38.2126 38.7515 38.4242 38.8172 38.6581 38.907ZM17.303 56.2298C17.303 57.2188 17.446 57.7206 17.8408 58.1156C18.3632 58.6383 18.737 58.6537 30.8822 58.6537C43.1342 58.6537 43.3969 58.6427 43.9379 58.1013C44.3689 57.67 44.4719 57.2726 44.4085 56.2852L44.327 55.0215L30.815 54.9518L17.303 54.8821V56.2298Z" fill="#FB8F2C"/>
</svg>
