<svg width="66" height="60" viewBox="0 0 66 60" fill="none" xmlns="http://www.w3.org/2000/svg">
<path fill-rule="evenodd" clip-rule="evenodd" d="M25.2724 1.03234C25.5968 1.56007 26.126 2.40815 26.4483 2.91711C26.7706 3.42607 27.8003 4.29057 28.7365 4.83767C30.2101 5.69923 30.4264 5.93743 30.3481 6.61126C30.2787 7.20881 29.8494 7.63475 28.4995 8.44557C27.1979 9.22735 26.5441 9.86157 25.9818 10.8874C24.4309 13.7179 23.8592 13.7461 22.346 11.0661C21.6747 9.87682 21.0517 9.25844 19.7088 8.44733C18.1924 7.53149 17.9507 7.26572 17.9507 6.51386C17.9507 5.77961 18.1634 5.52674 19.3018 4.90778C21.1557 3.89983 21.5633 3.51759 22.2552 2.13944C23.4938 -0.328803 24.2621 -0.610712 25.2724 1.03234ZM23.1386 3.74318C22.7653 4.39764 21.8786 5.28796 21.1449 5.74529C19.7249 6.63003 19.763 6.89815 21.3984 7.52064C21.886 7.70633 22.5004 8.38602 23.0003 9.29335C23.4463 10.103 23.943 10.7666 24.1041 10.7686C24.2653 10.7704 24.7268 10.1452 25.1297 9.3793C25.6803 8.33292 26.172 7.84655 27.1076 7.42325C27.7927 7.11318 28.353 6.77465 28.353 6.67051C28.353 6.56637 27.8129 6.17739 27.1527 5.80601C26.4589 5.41556 25.6255 4.58861 25.1769 3.84527C24.7505 3.13829 24.2685 2.56069 24.1062 2.56215C23.9439 2.56333 23.5084 3.09488 23.1386 3.74318ZM9.12867 5.07733C9.22654 5.33255 9.30653 5.78606 9.30653 6.08528C9.30653 6.48482 9.5597 6.65409 10.2589 6.72156C10.9888 6.79196 11.2331 6.96738 11.3049 7.47341C11.3846 8.03605 11.2645 8.13345 10.4898 8.13345C9.56937 8.13345 9.49787 8.21793 9.17409 9.6926C9.03256 10.3368 8.8503 10.4981 8.34395 10.426C7.85051 10.3559 7.65975 10.0872 7.5484 9.30684C7.4183 8.39482 7.29347 8.26985 6.43169 8.18684C5.62413 8.1091 5.47703 7.98648 5.55263 7.45346C5.62149 6.96944 5.87612 6.79108 6.59608 6.72156C7.41918 6.64206 7.5484 6.51915 7.5484 5.81687C7.5484 5.3701 7.63631 4.91628 7.74385 4.80892C8.10602 4.44634 8.94934 4.60973 9.12867 5.07733ZM50.7691 7.8442C53.2331 8.79202 55.897 10.5087 55.897 11.1488C55.897 11.8725 55.0997 12.111 54.4943 11.568C54.2183 11.3204 53.0424 10.6422 51.8811 10.0605C43.651 5.93773 33.453 10.0757 29.9804 18.9469C29.1831 20.9839 28.7828 23.9632 29.0591 25.8077C29.2212 26.889 29.4269 27.175 30.5603 27.8929C32.3852 29.0487 34.2392 30.9155 35.43 32.7959C36.5423 34.5531 37.7297 37.1791 37.7297 37.8826C37.7297 38.9565 41.9205 40.3919 45.0552 40.3919C47.5295 40.3919 52.6738 38.8712 52.6738 38.1399C52.6738 38.0334 52.3977 37.652 52.0602 37.2924C51.1694 36.3431 51.536 35.6704 53.5669 34.527C55.0478 33.693 55.5129 33.2219 56.4432 31.6134C57.5371 29.7219 57.5699 29.6955 58.7437 29.7468C59.9237 29.7988 59.9387 29.7864 60.3246 28.4268C60.5391 27.672 60.7122 25.8004 60.7096 24.2677C60.7043 21.1186 60.0154 18.5861 58.5242 16.2319C57.5875 14.7532 57.4579 14.1571 58 13.8215C58.4484 13.5443 59.769 15.1295 60.6964 17.058C61.7103 19.1657 62.3435 21.9326 62.3435 24.2542C62.3435 26.2434 61.5693 30.0156 60.9065 31.2552C60.406 32.1916 61.2479 33.2579 63.4807 34.5152C66.2383 36.0682 66.19 36.7887 63.222 38.3725C61.7554 39.1549 61.3976 39.5309 60.4198 41.3168C59.3892 43.199 59.2293 43.3568 58.4378 43.2764C57.7173 43.2031 57.4017 42.878 56.5033 41.2834C55.9131 40.2353 55.2319 39.3397 54.9898 39.293C54.7478 39.2464 53.5133 39.6808 52.2468 40.2587C48.2597 42.0778 43.8787 42.2632 38.975 40.8208C38.3342 40.6322 38.3157 40.6861 38.3157 42.7563C38.3157 46.7802 35.789 53.0159 34.1583 53.0159C33.3859 53.0159 33.5028 52.3048 34.5835 50.425C36.3314 47.3851 36.7026 45.9107 36.6651 42.162C36.6384 39.5168 36.5013 38.4535 36.0292 37.2366C34.2075 32.5398 30.9096 29.1813 26.3935 27.4238C24.9243 26.8521 24.1466 26.7614 20.7344 26.7632C16.7856 26.7649 16.7745 26.767 14.5077 27.8442C13.2585 28.4376 12.2367 29.0475 12.2367 29.1995C12.2367 29.3517 12.441 29.6456 12.6903 29.853C13.5471 30.565 13.0508 31.3943 11.0843 32.5378C9.48322 33.4683 9.08969 33.8669 8.47054 35.1841C7.66414 36.8999 7.40042 37.1639 6.48502 37.1706C5.49695 37.1777 5.09844 38.6057 5.10108 42.1303C5.1046 46.9016 6.27258 49.8909 9.45158 53.2647C12.5934 56.5986 16.4275 58.2818 20.8809 58.2818C23.8779 58.2818 25.8757 57.7335 28.8567 56.0931C30.8126 55.0168 31.4168 54.8675 31.7341 55.3812C32.3492 56.3774 27.6679 58.8377 23.6825 59.6127C21.0321 60.1282 20.839 60.1284 18.1288 59.6174C14.9701 59.0216 11.8204 57.5684 9.79998 55.774C4.41512 50.9912 2.37803 44.6437 4.06613 37.9061L4.68616 35.4314L4.08078 34.4698C3.74791 33.9409 2.71061 33.0435 1.77587 32.4756C-0.587353 31.0399 -0.590283 30.5266 1.75712 29.0531C3.19585 28.1501 3.84636 27.4963 4.64338 26.151C5.52919 24.6561 5.79291 24.4143 6.53718 24.4143C7.29318 24.4143 7.51705 24.6317 8.31876 26.143C9.58754 28.5347 9.81698 28.6095 12.0495 27.3596C15.3431 25.5159 17.2383 25.0175 20.8809 25.0377C23.1334 25.0503 24.4903 25.202 25.3864 25.5417C27.3039 26.2686 27.4733 26.207 27.4777 24.781C27.4894 20.9807 29.2408 16.0738 31.6618 13.0576C33.5951 10.6489 37.2192 8.37634 40.6599 7.41445C43.1069 6.73065 48.4669 6.95829 50.7691 7.8442ZM15.2256 14.5138L15.3135 16.2006L16.9984 16.2886C18.5672 16.3704 18.6832 16.4261 18.6832 17.0953C18.6832 17.7691 18.5848 17.814 17.103 17.814C15.3091 17.814 15.167 17.9788 15.167 20.0584C15.167 21.2558 15.1075 21.3664 14.5077 21.2814C13.9369 21.2001 13.8287 20.9707 13.7019 19.5741L13.5553 17.9606L12.017 17.8721C10.614 17.7911 10.4786 17.7216 10.4786 17.0806C10.4786 16.4396 10.614 16.3701 12.017 16.2891L13.5553 16.2006L13.638 14.8805C13.749 13.1092 13.875 12.827 14.5572 12.827C15.0586 12.827 15.1497 13.0573 15.2256 14.5138ZM41.832 19.9968C41.832 21.9552 41.526 22.5187 40.7935 21.9103C40.5198 21.6827 40.3669 21.0077 40.3669 20.027C40.3669 18.3578 40.4879 18.1073 41.2949 18.1073C41.7602 18.1073 41.832 18.3602 41.832 19.9968ZM49.2659 18.7674C49.777 20.6768 49.2284 22.5885 48.3734 21.878C47.9728 21.5454 47.8178 18.6662 48.1809 18.303C48.5779 17.9052 49.0942 18.1264 49.2659 18.7674ZM36.6197 25.1504C36.7428 25.8749 37.1213 27.1533 37.4607 27.9914C38.0854 29.5348 38.0344 30.1347 37.2787 30.1347C36.4237 30.1347 34.7613 25.2615 35.2135 24.0814C35.5636 23.1679 36.3894 23.7954 36.6197 25.1504ZM54.7196 24.1148C55.0039 24.4575 55.0039 24.8734 54.7202 26.0949C53.4075 31.746 48.357 35.0911 42.8619 33.9491C40.8363 33.5281 40.0738 33.1142 40.0738 32.4354C40.0738 31.7346 40.6713 31.6134 41.6597 32.1139C44.1272 33.3627 48.1354 32.7229 50.4122 30.7164C51.8838 29.4195 53.2598 26.8908 53.2598 25.4833C53.2598 23.7883 53.9291 23.1609 54.7196 24.1148ZM5.66046 27.6482C5.32671 28.2684 4.46112 29.0757 3.49532 29.6671L1.88634 30.6524L3.4962 31.7226C4.43856 32.3489 5.37769 33.2758 5.76009 33.9573C6.11963 34.5977 6.46568 35.1216 6.52927 35.1216C6.59256 35.1216 6.9732 34.5607 7.37522 33.8749C7.77696 33.189 8.57046 32.3782 9.13834 32.0725C9.70651 31.7668 10.381 31.2849 10.6371 31.0012C11.072 30.5204 10.9987 30.4298 9.54564 29.6503C8.48431 29.0809 7.80098 28.464 7.40189 27.7154C7.07956 27.1108 6.68106 26.6156 6.51608 26.6153C6.35141 26.6148 5.96637 27.0797 5.66046 27.6482ZM57.4175 33.3166C56.7934 34.3322 56.127 34.9652 55.1867 35.4352C54.4492 35.8039 53.8459 36.2155 53.8459 36.3496C53.8459 36.4839 54.5019 36.9979 55.3039 37.4919C56.3157 38.1152 57.0029 38.833 57.5482 39.836C57.9807 40.6313 58.4369 41.2819 58.562 41.2819C58.6875 41.2819 59.161 40.5955 59.6146 39.7562C60.191 38.6896 60.8289 38.0037 61.7352 37.4766C62.4481 37.0618 63.0775 36.5842 63.1338 36.4153C63.19 36.2463 62.5817 35.8016 61.7824 35.4267C60.6478 34.8945 60.1786 34.4533 59.6453 33.4158C59.2697 32.6847 58.8149 32.0373 58.635 31.9772C58.4551 31.9173 57.9071 32.5199 57.4175 33.3166ZM16.7815 34.664C18.0125 35.1788 19.0182 36.7107 18.9094 37.9061C18.8004 39.1056 17.8968 39.2766 17.6295 38.1478C16.9761 35.3844 13.873 35.2474 13.151 37.9504C12.86 39.0393 11.8432 39.1155 11.6947 38.0592C11.5353 36.9292 12.4744 35.5038 13.8156 34.8391C15.2502 34.1283 15.47 34.1151 16.7815 34.664ZM28.6706 35.1392C30.0633 36.1319 30.6028 38.6609 29.4679 38.877C29.1048 38.9466 28.8857 38.6532 28.6521 37.7852C28.3034 36.4886 27.6793 36.0016 26.3666 36.0016C25.392 36.0016 24.6111 36.7327 24.2858 37.9504C24.1378 38.5051 23.8709 38.7885 23.497 38.7885C23.0346 38.7885 22.9379 38.5904 22.9646 37.6992C23.0507 34.8065 26.2136 33.3876 28.6706 35.1392ZM12.1781 42.8073C12.3715 43.001 12.5298 43.6654 12.5298 44.2838C12.5298 47.8063 17.0432 51.8425 20.9826 51.8425C24.9091 51.8425 29.232 47.9392 29.232 44.3938C29.232 43.1429 29.9235 42.1626 30.4437 42.6762C30.7361 42.9646 30.7464 43.4492 30.4929 44.9321C29.8907 48.4511 28.2563 50.7078 25.1464 52.3133C23.7663 53.0256 23.2136 53.1371 21.0441 53.14C17.1583 53.1456 15.2247 52.2095 12.8134 49.1557C11.5101 47.5047 10.5258 44.05 11.0694 43.0332C11.4257 42.3667 11.6853 42.3139 12.1781 42.8073ZM44.4009 48.4713C44.5635 50.9132 44.6028 50.9625 46.3794 50.9625C47.79 50.9625 47.9854 51.0337 47.9854 51.5492C47.9854 52.0528 47.7885 52.1364 46.5936 52.1403C45.8279 52.1429 45.0449 52.2447 44.853 52.3667C44.6614 52.4888 44.4636 53.3119 44.4135 54.1958C44.3355 55.5768 44.2403 55.8027 43.7366 55.8027C43.232 55.8027 43.1303 55.5584 43.004 54.0426L42.8575 52.2825L41.2459 52.1359C40.0738 52.0291 39.6343 51.8692 39.6343 51.5492C39.6343 51.2291 40.0738 51.0692 41.2459 50.9625L42.8575 50.8158L42.9396 49.349C43.0462 47.4367 43.1886 47.0853 43.809 47.2029C44.1794 47.2733 44.3443 47.6268 44.4009 48.4713Z" fill="#FB8F2C"/>
</svg>
