<svg width="53" height="60" viewBox="0 0 53 60" fill="none" xmlns="http://www.w3.org/2000/svg">
<path fill-rule="evenodd" clip-rule="evenodd" d="M25.0764 0.423067C25.4851 0.595768 26.2484 1.05825 26.7723 1.45081C27.6479 2.10655 27.8383 2.16438 29.1243 2.16438C30.578 2.16438 32.248 2.59563 32.6544 3.07625C32.7836 3.229 32.8265 3.54861 32.7497 3.7862C32.6261 4.16807 32.5113 4.20253 31.7572 4.08263C31.2883 4.00807 30.0266 3.90288 28.9536 3.84907C27.1033 3.75617 26.9657 3.71748 26.2839 3.10084C24.9823 1.92357 23.9545 1.51449 22.3135 1.52033C20.5862 1.52658 19.7635 1.82624 18.3699 2.95615L17.3612 3.77411L15.5076 3.74065C13.2653 3.69995 12.1385 4.13644 10.8889 5.52953C8.80034 7.85766 9.09688 11.5872 11.5216 13.4883L12.3714 14.1547L12.2184 16.5729C11.9366 21.0256 11.9356 21.0115 12.5248 20.9704C12.8071 20.9507 14.2857 20.8245 15.8105 20.6899C19.3306 20.3794 26.0362 20.3824 29.3643 20.696C33.2573 21.0627 32.9608 21.0788 32.9398 20.5025C32.9296 20.2254 32.7517 18.6987 32.5443 17.1095L32.1673 14.2206L33.1403 13.3186C34.4207 12.1317 34.9682 10.9036 34.9688 9.21751C34.9692 8.49708 34.8288 7.52415 34.6567 7.05542C34.2858 6.04441 34.5445 5.44953 35.2584 5.6718C36.3992 6.02708 36.8355 9.97179 35.9517 11.938C35.7026 12.4922 35.1259 13.3805 34.6702 13.9121L33.8418 14.8785L34.0786 17.0356C34.2088 18.2219 34.4057 20.0995 34.5162 21.2078C34.6267 22.3162 34.7522 23.3236 34.7953 23.4463C34.8384 23.569 35.1713 23.7278 35.535 23.7993C36.4004 23.969 37.4911 25.1199 37.6691 26.0507C37.8775 27.1411 37.1187 28.5235 36.0385 29.0219C35.5867 29.2302 35.0785 29.4709 34.9091 29.5565C34.7396 29.6421 34.5764 29.975 34.5462 30.2965C34.4458 31.3655 33.8416 33.2842 33.2198 34.508C32.7891 35.3554 31.9977 36.3049 30.5741 37.6819C29.4569 38.7624 28.5429 39.7624 28.5429 39.904C28.5429 40.4169 29.1557 41.0011 30.0211 41.3133C30.5069 41.4886 32.9164 42.2725 35.3754 43.0556C37.8342 43.8385 40.2102 44.6615 40.6552 44.8841C41.1003 45.107 41.5141 45.2892 41.5751 45.2892C41.7574 45.2892 41.6942 43.3971 41.5017 43.0993C41.3993 42.9403 40.7624 42.7668 39.9956 42.689C39.2652 42.6149 38.4398 42.4077 38.1618 42.2289C37.319 41.6871 37.168 40.694 37.1684 35.6937C37.1686 30.6501 37.3038 29.963 38.4002 29.4255C39.199 29.0338 50.9485 29.064 51.7283 29.4598C52.9461 30.0776 52.9904 30.2987 52.9995 35.8029C53.0062 39.9056 52.9508 40.9328 52.6968 41.4148C52.2376 42.286 51.5067 42.6695 50.3047 42.6695C48.4372 42.6695 48.4628 42.6191 48.4628 46.2992V49.5118L48.9847 49.8473C49.2718 50.0319 49.7505 50.5913 50.0486 51.0907C50.5216 51.8825 50.6027 52.279 50.6828 54.1892C50.8159 57.3559 50.2051 58.7834 48.3602 59.6191C47.6699 59.9317 47.006 59.9919 44.2049 59.9956L40.8711 60L40.2004 59.4118L39.5297 58.8235V54.5963C39.5297 49.8911 39.556 49.7957 41.0185 49.1884C41.5816 48.9544 41.686 48.8061 41.686 48.2394C41.686 46.9257 40.3985 46.0872 36.5519 44.895C35.0271 44.4225 33.0865 43.8119 32.2394 43.5382C31.3923 43.2645 30.5605 43.0348 30.3911 43.0278C30.0541 43.0137 28.7875 43.5811 22.877 46.3939C17.5103 48.9482 17.6588 48.6955 17.6588 55.2809C17.6588 59.6294 17.6454 59.7755 17.2382 59.9023C17.0043 59.9752 16.6774 59.9192 16.5018 59.7761C16.2293 59.554 16.1958 58.8258 16.2578 54.4695C16.3254 49.7234 16.357 49.3701 16.7829 48.5834C17.0322 48.1229 17.5729 47.4739 17.9847 47.1409C18.4069 46.7994 18.6716 46.4376 18.5917 46.3109C18.5139 46.1874 17.9364 45.7029 17.308 45.2344C14.3718 43.0443 14.4773 43.09 13.2581 43.4711C12.9112 43.5795 12.073 43.8441 11.3953 44.0591C10.7176 44.2744 9.3314 44.6887 8.31487 44.9803C4.79889 45.9885 3.41415 46.8637 2.34833 48.7515L1.74333 49.8233L1.64065 54.6598C1.58418 57.3198 1.46322 59.6097 1.37184 59.7481C1.16114 60.0677 0.564975 60.0729 0.244202 59.7582C0.0673867 59.5847 -0.00161429 58.2627 2.85969e-05 55.0729C0.00228756 50.3044 0.135772 49.437 1.11431 47.8251C2.46394 45.6024 3.47247 45.0536 10.1077 42.9312C15.5126 41.2022 16.632 40.6952 16.632 39.9764C16.632 39.8146 16.0545 39.2767 15.3485 38.7814C13.6442 37.5856 13.301 37.186 13.3821 36.4923C13.4824 35.6359 14.0073 35.6901 15.1355 36.6733C16.3399 37.723 17.4025 38.3882 18.319 38.6665C22.0792 39.8081 24.2342 39.6834 27.438 38.1387C30.2233 36.796 32.6199 33.6574 33.0772 30.7531C33.1885 30.0474 33.2532 27.9309 33.2214 26.0497L33.1635 22.6293L32.2394 22.4361C31.0351 22.1846 13.9341 22.1846 12.7301 22.4363L11.806 22.6293L11.7501 26.537C11.7068 29.5684 11.7643 30.6812 12.0068 31.4997C12.472 33.0698 12.4235 33.5679 11.791 33.7237C11.5004 33.7952 11.1766 33.7694 11.0714 33.6663C10.834 33.4333 10.2658 31.3315 10.2658 30.6858C10.2658 29.882 10.0553 29.6 9.27226 29.3548C6.93156 28.6215 6.26558 25.9997 8.02387 24.441C8.49887 24.0198 9.04246 23.7268 9.34865 23.7268C9.96741 23.7268 9.94954 23.7786 10.251 21.1071C10.3822 19.9433 10.5675 18.5377 10.6626 17.9835C11.1819 14.9559 11.2275 15.2731 10.1087 14.1329C8.51736 12.5113 8.10951 11.5078 8.10951 9.21327C8.10951 7.4508 8.16455 7.1848 8.78556 5.94707C9.49631 4.5304 10.4274 3.59879 11.9399 2.7909C12.6558 2.40862 13.2402 2.29476 14.8864 2.21678C16.7835 2.1267 16.9868 2.07652 17.5561 1.556C18.1418 1.02057 19.5425 0.298126 20.4311 0.073031C21.2144 -0.125263 24.3352 0.109909 25.0764 0.423067ZM18.011 12.341C19.4733 16.0482 19.5315 16.4721 18.578 16.4721C17.9968 16.4721 17.6249 15.8142 16.5847 12.9456C15.9814 11.2821 16.0309 10.9862 16.8985 11.0703C17.4678 11.1255 17.5838 11.2581 18.011 12.341ZM22.8735 11.35C23.0628 11.8344 23.0162 15.9307 22.8178 16.2378C22.7219 16.3861 22.4231 16.4768 22.1535 16.4393C21.675 16.373 21.6619 16.3184 21.6035 14.1547C21.5302 11.4336 21.615 11.0312 22.2613 11.0312C22.5295 11.0312 22.8049 11.1746 22.8735 11.35ZM28.2708 11.3528C28.3915 11.6617 28.0114 12.7352 26.9733 15.0172C26.7072 15.6022 26.4893 16.1691 26.4893 16.2767C26.4893 16.3841 26.2139 16.4721 25.8771 16.4721C24.893 16.4721 24.9016 15.8503 25.9173 13.5459C26.4051 12.44 26.8772 11.4217 26.9667 11.2831C27.1998 10.9223 28.1219 10.9717 28.2708 11.3528ZM8.96278 25.7075C8.48285 26.2278 8.54118 27.0069 9.09812 27.5206C9.88567 28.2464 10.0604 28.0882 10.0604 26.6488C10.0604 25.51 10.0109 25.3389 9.68154 25.3389C9.4731 25.3389 9.14966 25.5048 8.96278 25.7075ZM34.7037 26.6488C34.7037 28.0909 34.9571 28.3145 35.7305 27.5556C36.4955 26.805 36.0433 25.3389 35.0469 25.3389C34.7614 25.3389 34.7037 25.5592 34.7037 26.6488ZM17.6161 27.503C17.5645 28.8433 17.5019 29.0729 17.17 29.1351C16.6133 29.2395 16.4334 28.827 16.4297 27.4381C16.4262 26.0704 16.4907 25.9435 17.1883 25.9435C17.6649 25.9435 17.6746 25.9792 17.6161 27.503ZM28.4182 26.9017C28.7497 28.4516 28.0416 29.6452 27.1982 28.9582C27.0062 28.8018 26.9 28.3353 26.9 27.6481C26.9 26.202 27.0405 25.9084 27.6964 25.983C28.148 26.0344 28.2644 26.1825 28.4182 26.9017ZM38.9282 30.895C38.6534 31.1648 38.6055 31.9086 38.6055 35.9216C38.6055 40.5602 38.6125 40.6361 39.0621 40.9451C39.319 41.1218 39.9431 41.2588 40.4897 41.2588C42.7501 41.2588 43.1235 41.8791 43.1235 45.6344C43.1235 49.1602 43.1222 49.1581 45.1816 49.0773L46.7173 49.0173L46.82 45.8273L46.9226 42.6372L47.6897 41.948C48.3565 41.3489 48.5982 41.258 49.5379 41.2524C51.471 41.2409 51.4311 41.3483 51.503 35.9611C51.5642 31.373 51.557 31.2783 51.1208 30.9317C50.721 30.6139 50.102 30.5784 44.9637 30.5784C40.0441 30.5784 39.2062 30.6223 38.9282 30.895ZM22.3821 32.6278C22.8903 32.6155 23.5834 32.5801 23.9223 32.549C24.45 32.5009 24.5472 32.5676 24.6002 33.0139C24.6854 33.7348 24.24 34.0233 22.8511 34.1469C21.308 34.2841 20.1231 33.8474 20.1231 33.1413C20.1231 32.494 20.3272 32.3358 20.9421 32.5069C21.2259 32.5857 21.8738 32.6401 22.3821 32.6278ZM42.1191 33.3996C42.3018 34.0477 42.3406 37.3921 42.1749 38.2048C42.0176 38.9762 41.3321 39.2636 40.9315 38.726C40.5559 38.2222 40.5421 33.0782 40.9158 32.9249C41.459 32.702 41.9804 32.9077 42.1191 33.3996ZM45.7474 35.863L45.804 38.8303L45.2757 38.9603C44.9851 39.0321 44.6822 39.027 44.6027 38.9494C44.4148 38.7657 44.2829 33.9131 44.4483 33.2662C44.5501 32.8678 44.6857 32.7822 45.1329 32.8328L45.6905 32.8959L45.7474 35.863ZM49.3613 33.4248C49.4319 33.7712 49.4897 34.8933 49.4897 35.9186C49.4897 38.4735 49.3564 39.0421 48.7573 39.0421C48.4957 39.0421 48.2224 38.9478 48.1497 38.8326C48.0511 38.6762 47.9671 34.0771 48.0421 32.9462C48.0476 32.8632 48.3179 32.7951 48.6425 32.7951C49.1395 32.7951 49.2533 32.8948 49.3613 33.4248ZM17.7534 40.8856C17.562 41.2572 17.2214 41.7586 16.9967 42.0002C16.7718 42.2416 16.6209 42.53 16.6613 42.641C16.7722 42.9464 20.3611 45.4907 20.6809 45.4907C20.8345 45.4907 21.95 45.0262 23.1598 44.4583C24.3697 43.8907 25.9375 43.169 26.6433 42.8547C27.3493 42.5405 27.9268 42.2175 27.9268 42.1371C27.9268 42.0564 27.7294 41.5907 27.4884 41.1021C27.0801 40.2744 27.0062 40.2218 26.4102 40.3349C23.1904 40.9463 21.2181 40.9475 18.6503 40.3401C18.1763 40.2279 18.0543 40.3022 17.7534 40.8856ZM41.1871 50.8452C40.9193 51.1082 40.8645 51.7396 40.8645 54.559C40.8645 57.3785 40.9193 58.0098 41.1871 58.2728C41.444 58.5249 42.0041 58.5894 43.9338 58.5894C47.0253 58.5894 47.4987 58.4876 48.3665 57.636L49.0789 56.9369V54.7271C49.0789 52.3994 48.9475 51.9294 48.0936 51.2031C47.4163 50.627 46.8093 50.5287 43.9338 50.5287C42.0041 50.5287 41.444 50.5931 41.1871 50.8452ZM22.1685 51.2243C22.5552 51.6815 22.3443 52.2416 21.7855 52.2416C21.1378 52.2416 20.7708 51.6822 21.1355 51.2509C21.4719 50.8531 21.8465 50.8434 22.1685 51.2243ZM27.683 51.5866C27.6303 52.1253 27.5317 52.2416 27.1277 52.2416C26.4776 52.2416 26.1096 51.683 26.4749 51.2509C26.6234 51.0754 26.9704 50.9317 27.2462 50.9317C27.688 50.9317 27.7399 51.0093 27.683 51.5866ZM10.4763 53.8668C10.5864 54.1511 10.6765 55.4149 10.6765 56.675C10.6765 57.935 10.5864 59.1988 10.4763 59.4831C10.2631 60.0335 9.69386 60.1642 9.28006 59.7582C8.92479 59.4095 8.93424 53.6244 9.29033 53.4833C9.88814 53.2467 10.2857 53.3753 10.4763 53.8668ZM22.3016 56.6897C22.4706 57.351 22.1469 57.6686 21.4729 57.5028C20.9065 57.3631 20.7679 56.8281 21.191 56.413C21.614 55.9979 22.1592 56.1339 22.3016 56.6897ZM27.7941 56.6234C27.9594 57.244 27.4867 57.6688 26.8148 57.5034C25.9071 57.2797 26.2486 56.1712 27.2251 56.1712C27.5171 56.1712 27.7157 56.3289 27.7941 56.6234Z" fill="#FB8F2C"/>
</svg>
