<svg width="24" height="24" viewBox="0 0 24 24" fill="none" xmlns="http://www.w3.org/2000/svg">
<g id="Iconly/Bulk/Message">
<g id="Group">
<path id="Fill 1" opacity="0.4" d="M22 15.9402C22 18.7302 19.76 20.9902 16.97 21.0002H16.96H7.05C4.27 21.0002 2 18.7502 2 15.9602V15.9502C2 15.9502 2.006 11.5242 2.014 9.29824C2.015 8.88024 2.495 8.64624 2.822 8.90624C5.198 10.7912 9.447 14.2282 9.5 14.2732C10.21 14.8422 11.11 15.1632 12.03 15.1632C12.95 15.1632 13.85 14.8422 14.56 14.2622C14.613 14.2272 18.767 10.8932 21.179 8.97724C21.507 8.71624 21.989 8.95024 21.99 9.36724C22 11.5762 22 15.9402 22 15.9402Z" fill="white"/>
<path id="Fill 4" d="M21.973 4.674C21.107 3.042 19.403 2 17.527 2H7.54695C5.67095 2 3.96695 3.042 3.10095 4.674C2.90695 5.039 2.99895 5.494 3.32195 5.752L10.747 11.691C11.267 12.111 11.897 12.32 12.527 12.32C12.531 12.32 12.534 12.32 12.537 12.32C12.54 12.32 12.544 12.32 12.547 12.32C13.177 12.32 13.807 12.111 14.327 11.691L21.752 5.752C22.075 5.494 22.167 5.039 21.973 4.674Z" fill="white"/>
</g>
</g>
</svg>
