<svg width="123" height="36" viewBox="0 0 123 36" fill="none" xmlns="http://www.w3.org/2000/svg">
<g clip-path="url(#clip0_62_105)">
<path fill-rule="evenodd" clip-rule="evenodd" d="M118.134 36H5.12191C2.62948 36 0.599609 33.9711 0.599609 31.5V4.5C0.599609 2.01995 2.62948 0 5.12191 0H118.134C120.625 0 122.657 2.01995 122.657 4.5V31.5C122.657 33.9711 120.625 36 118.134 36Z" fill="black"/>
<path fill-rule="evenodd" clip-rule="evenodd" d="M118.134 0.720449C120.225 0.720449 121.936 2.41945 121.936 4.5V31.5C121.936 33.5805 120.236 35.2796 118.134 35.2796H5.12191C3.03141 35.2796 1.32039 33.5805 1.32039 31.5V4.5C1.32039 2.41945 3.02018 0.720449 5.12191 0.720449H118.134ZM118.134 0H5.12191C2.62948 0 0.599609 2.02893 0.599609 4.5V31.5C0.599609 33.98 2.62948 36 5.12191 36H118.134C120.625 36 122.657 33.98 122.657 31.5V4.5C122.657 2.02893 120.625 0 118.134 0Z" fill="#A6A6A6"/>
<path d="M64.9001 11.9086C64.085 11.9086 63.3979 11.6235 62.8545 11.0624C62.3156 10.517 62.0147 9.76518 62.0282 8.9976C62.0282 8.17839 62.3066 7.48488 62.8545 6.935C63.3957 6.3739 64.0828 6.08887 64.8978 6.08887C65.704 6.08887 66.3911 6.3739 66.9434 6.935C67.4913 7.50283 67.7697 8.19635 67.7697 8.9976C67.7608 9.81904 67.4823 10.5126 66.9434 11.0602C66.4023 11.6258 65.7152 11.9086 64.9001 11.9086ZM40.6472 11.9086C39.8501 11.9086 39.1585 11.628 38.5926 11.0737C38.0313 10.5215 37.7461 9.82353 37.7461 8.99984C37.7461 8.17615 38.0313 7.47814 38.5926 6.92602C39.1472 6.37166 39.8388 6.09111 40.6472 6.09111C41.0424 6.09111 41.4264 6.16967 41.7946 6.32902C42.1561 6.48388 42.4503 6.69485 42.6681 6.95296L42.722 7.01804L42.1135 7.61505L42.0506 7.54099C41.707 7.13251 41.2467 6.93276 40.6382 6.93276C40.0948 6.93276 39.621 7.12578 39.2303 7.50732C38.8374 7.89111 38.6375 8.39386 38.6375 9.00208C38.6375 9.61031 38.8374 10.1131 39.2303 10.4968C39.621 10.8784 40.0948 11.0714 40.6382 11.0714C41.2175 11.0714 41.7048 10.8784 42.0843 10.4968C42.3088 10.2724 42.448 9.95819 42.4974 9.56094H40.5461V8.72154H43.335L43.3462 8.79785C43.3664 8.93924 43.3866 9.08513 43.3866 9.21979C43.3866 9.9941 43.1531 10.6203 42.6905 11.0826C42.1651 11.6303 41.478 11.9086 40.6472 11.9086ZM72.8938 11.7896H72.0338L69.3999 7.5769L69.4224 8.3355V11.7874H68.5624V6.21006H69.5436L69.5706 6.25271L72.0473 10.2208L72.0248 9.46443V6.21006H72.8938V11.7896ZM58.4377 11.7896H57.5665V7.04947H56.0553V6.21006H59.9467V7.04947H58.4355V11.7896H58.4377ZM55.3458 11.7896H54.4768V6.21006H55.3458V11.7896ZM50.462 11.7896H49.593V7.04947H48.0818V6.21006H51.9731V7.04947H50.462V11.7896ZM47.5317 11.7806H44.1995V6.21006H47.5317V7.04947H45.0707V8.58014H47.2914V9.41056H45.0707V10.9412H47.5317V11.7806ZM63.4922 10.4856C63.8807 10.8739 64.3522 11.0692 64.9001 11.0692C65.4637 11.0692 65.924 10.8784 66.308 10.4856C66.6897 10.1041 66.8828 9.60358 66.8828 8.99984C66.8828 8.3961 66.6897 7.89336 66.3102 7.51405C65.9218 7.12577 65.448 6.93051 64.9023 6.93051C64.3387 6.93051 63.8784 7.12129 63.4967 7.51405C63.115 7.8956 62.9219 8.3961 62.9219 8.99984C62.9219 9.60358 63.1127 10.1063 63.4922 10.4856Z" fill="white"/>
<path fill-rule="evenodd" clip-rule="evenodd" d="M61.9461 19.58C59.8242 19.58 58.1042 21.1892 58.1042 23.4089C58.1042 25.6084 59.8354 27.2378 61.9461 27.2378C64.0681 27.2378 65.7881 25.6174 65.7881 23.4089C65.7881 21.1892 64.0681 19.58 61.9461 19.58ZM61.9461 25.7206C60.7852 25.7206 59.786 24.76 59.786 23.3999C59.786 22.0196 60.7875 21.0792 61.9461 21.0792C63.107 21.0792 64.1062 22.0196 64.1062 23.3999C64.1085 24.769 63.107 25.7206 61.9461 25.7206ZM53.5639 19.58C51.442 19.58 49.722 21.1892 49.722 23.4089C49.722 25.6084 51.4532 27.2378 53.5639 27.2378C55.6859 27.2378 57.4059 25.6174 57.4059 23.4089C57.4059 21.1892 55.6836 19.58 53.5639 19.58ZM53.5639 25.7206C52.403 25.7206 51.4038 24.76 51.4038 23.3999C51.4038 22.0196 52.4053 21.0792 53.5639 21.0792C54.7248 21.0792 55.724 22.0196 55.724 23.3999C55.724 24.769 54.7248 25.7206 53.5639 25.7206ZM43.5897 20.7493V22.3698H47.4811C47.3621 23.2787 47.0612 23.9498 46.6009 24.4099C46.0305 24.98 45.1503 25.5994 43.5987 25.5994C41.2073 25.5994 39.3369 23.6693 39.3369 21.279C39.3369 18.8887 41.2073 16.9585 43.5987 16.9585C44.8898 16.9585 45.8307 17.468 46.529 18.1189L47.6787 16.9697C46.7086 16.0406 45.4175 15.3291 43.6077 15.3291C40.3271 15.3291 37.5742 17.9999 37.5742 21.27C37.5742 24.5491 40.3249 27.2109 43.6077 27.2109C45.3793 27.2109 46.7086 26.6318 47.7595 25.5411C48.8306 24.4705 49.1696 22.96 49.1696 21.7413C49.1696 21.362 49.1404 21.0209 49.0798 20.7313H43.5875C43.5897 20.7291 43.5897 20.7493 43.5897 20.7493ZM84.387 22.0106C84.0659 21.151 83.0958 19.571 81.1064 19.571C79.1349 19.571 77.4957 21.1219 77.4957 23.3999C77.4957 25.55 79.1169 27.2289 81.2973 27.2289C83.0487 27.2289 84.0681 26.1583 84.488 25.5299L83.1879 24.659C82.7568 25.2987 82.1573 25.7184 81.3062 25.7184C80.4462 25.7184 79.8445 25.3279 79.4448 24.558L84.5666 22.4371C84.5666 22.4393 84.387 22.0106 84.387 22.0106ZM79.1641 23.2899C79.1237 21.8109 80.3138 21.059 81.1648 21.059C81.8362 21.059 82.3953 21.389 82.5861 21.8693L79.1641 23.2899ZM75.0033 26.9999H76.6851V15.751H75.0033V26.9999ZM72.2414 20.4306H72.1808C71.8013 19.9795 71.0805 19.571 70.1599 19.571C68.2491 19.571 66.4886 21.252 66.4886 23.4111C66.4886 25.5613 68.2401 27.2221 70.1599 27.2221C71.0693 27.2221 71.8013 26.8114 72.1808 26.3513H72.2414V26.9012C72.2414 28.3623 71.46 29.1501 70.2003 29.1501C69.1697 29.1501 68.5297 28.4094 68.2693 27.7899L66.8075 28.4004C67.2274 29.4104 68.3479 30.6605 70.1981 30.6605C72.1696 30.6605 73.8402 29.5002 73.8402 26.67V19.7999H72.2504V20.4306C72.2527 20.4306 72.2414 20.4306 72.2414 20.4306ZM70.3104 25.7206C69.1495 25.7206 68.1794 24.751 68.1794 23.4111C68.1794 22.06 69.1495 21.0815 70.3104 21.0815C71.46 21.0815 72.3515 22.0712 72.3515 23.4111C72.3627 24.751 71.4623 25.7206 70.3104 25.7206ZM92.2617 15.751H88.2401V26.9999H89.922V22.7401H92.2639C94.1254 22.7401 95.9554 21.3912 95.9554 19.25C95.9554 17.1089 94.1321 15.751 92.2617 15.751ZM92.3111 21.169H89.9197V17.3087H92.3111C93.5708 17.3087 94.2826 18.3478 94.2826 19.2388C94.2826 20.1209 93.5618 21.169 92.3111 21.169ZM102.696 19.5598C101.475 19.5598 100.215 20.1007 99.6941 21.279L101.185 21.8984C101.506 21.279 102.094 21.068 102.716 21.068C103.588 21.068 104.468 21.5887 104.488 22.5179V22.6368C104.187 22.4663 103.527 22.2059 102.737 22.2059C101.127 22.2059 99.4942 23.0857 99.4942 24.7353C99.4942 26.2458 100.815 27.2154 102.285 27.2154C103.415 27.2154 104.037 26.7059 104.425 26.1156H104.486V26.9865H106.107V22.6772C106.107 20.6707 104.616 19.5598 102.696 19.5598ZM102.485 25.7206C101.935 25.7206 101.165 25.4513 101.165 24.76C101.165 23.8892 102.126 23.5593 102.945 23.5593C103.686 23.5593 104.037 23.7186 104.477 23.9386C104.356 24.9486 103.502 25.7116 102.485 25.7206ZM112.021 19.7999L110.09 24.6792H110.03L108.029 19.7999H106.219L109.221 26.6206L107.51 30.4114H109.262L113.881 19.7999H112.021ZM96.8828 26.9999H98.5646V15.751H96.8828V26.9999Z" fill="white"/>
<path fill-rule="evenodd" clip-rule="evenodd" d="M9.9949 6.78033C9.73443 7.06087 9.58398 7.48955 9.58398 8.05065V27.9516C9.58398 28.5127 9.73443 28.9414 10.0039 29.2107L10.0735 29.2713L21.2288 18.1212V17.8721L10.0645 6.71973L9.9949 6.78033Z" fill="url(#paint0_linear_62_105)"/>
<path fill-rule="evenodd" clip-rule="evenodd" d="M24.9394 21.8486L21.2188 18.1297V17.8693L24.9394 14.1504L25.0203 14.1998L29.4213 16.7C30.681 17.4092 30.681 18.5808 29.4213 19.299L25.0203 21.7993L24.9394 21.8486Z" fill="url(#paint1_linear_62_105)"/>
<path fill-rule="evenodd" clip-rule="evenodd" d="M25.0206 21.7997L21.2191 18L9.99414 29.2197C10.4051 29.6596 11.0944 29.709 11.8646 29.2803L25.0206 21.7997Z" fill="url(#paint2_linear_62_105)"/>
<path fill-rule="evenodd" clip-rule="evenodd" d="M25.0206 14.2002L11.8646 6.73087C11.0944 6.29097 10.4028 6.35157 9.99414 6.79147L21.2191 17.9999L25.0206 14.2002Z" fill="url(#paint3_linear_62_105)"/>
<path opacity="0.2" fill-rule="evenodd" clip-rule="evenodd" d="M24.9405 21.7188L11.8744 29.1387C11.1446 29.5584 10.4934 29.5292 10.0735 29.1477L10.0039 29.2173L10.0735 29.2779C10.4934 29.6572 11.1446 29.6886 11.8744 29.2689L25.0303 21.7995L24.9405 21.7188Z" fill="black"/>
<path opacity="0.12" fill-rule="evenodd" clip-rule="evenodd" d="M29.4228 19.1693L24.9297 21.719L25.0105 21.7998L29.4116 19.2995C30.0425 18.9404 30.3524 18.4691 30.3524 18C30.3142 18.4309 29.9931 18.8394 29.4228 19.1693Z" fill="black"/>
<path opacity="0.25" fill-rule="evenodd" clip-rule="evenodd" d="M11.8653 6.86106L29.4224 16.8306C29.9927 17.1516 30.3138 17.5713 30.3632 18C30.3632 17.5309 30.0533 17.0596 29.4224 16.7005L11.8653 6.73089C10.6057 6.01044 9.58398 6.61194 9.58398 8.05059V8.18076C9.58398 6.73987 10.6057 6.14959 11.8653 6.86106Z" fill="white"/>
</g>
<defs>
<linearGradient id="paint0_linear_62_105" x1="20.2282" y1="7.83594" x2="2.36041" y2="12.599" gradientUnits="userSpaceOnUse">
<stop stop-color="#00A0FF"/>
<stop offset="0.00657" stop-color="#00A1FF"/>
<stop offset="0.2601" stop-color="#00BEFF"/>
<stop offset="0.5122" stop-color="#00D2FF"/>
<stop offset="0.7604" stop-color="#00DFFF"/>
<stop offset="1" stop-color="#00E3FF"/>
</linearGradient>
<linearGradient id="paint1_linear_62_105" x1="31.0641" y1="17.9996" x2="9.27676" y2="17.9996" gradientUnits="userSpaceOnUse">
<stop stop-color="#FFE000"/>
<stop offset="0.4087" stop-color="#FFBD00"/>
<stop offset="0.7754" stop-color="#FFA500"/>
<stop offset="1" stop-color="#FF9C00"/>
</linearGradient>
<linearGradient id="paint2_linear_62_105" x1="22.9535" y1="20.0676" x2="8.61826" y2="44.2061" gradientUnits="userSpaceOnUse">
<stop stop-color="#FF3A44"/>
<stop offset="1" stop-color="#C31162"/>
</linearGradient>
<linearGradient id="paint3_linear_62_105" x1="7.16759" y1="0.160865" x2="13.5631" y2="10.9415" gradientUnits="userSpaceOnUse">
<stop stop-color="#32A071"/>
<stop offset="0.0685" stop-color="#2DA771"/>
<stop offset="0.4762" stop-color="#15CF74"/>
<stop offset="0.8009" stop-color="#06E775"/>
<stop offset="1" stop-color="#00F076"/>
</linearGradient>
<clipPath id="clip0_62_105">
<rect width="122.057" height="36" fill="white" transform="translate(0.599609)"/>
</clipPath>
</defs>
</svg>
