<svg width="70" height="70" viewBox="0 0 70 70" fill="none" xmlns="http://www.w3.org/2000/svg">
<rect x="0.5" y="0.5" width="69" height="69" rx="1.5" stroke="#FB8F2C"/>
<path d="M13.8607 26.6055L15.3424 26.1045V26.1048C16.1792 25.8229 16.8737 25.2343 17.2829 24.4619C17.6917 23.6892 17.7836 22.791 17.539 21.9536L16.5226 18.456C16.2608 17.5597 15.6359 16.809 14.7952 16.3803C13.9546 15.9513 12.9717 15.8824 12.0779 16.1893L10.5962 16.6987C10.1763 16.8328 9.9271 17.258 10.019 17.6836L14.326 36.2662V53.9999H16.0488V40.4176H19.4944V35.3242H15.8765L13.8607 26.6055Z" fill="#DE7F29"/>
<path d="M27.5558 47.0128C27.029 46.7327 26.4168 46.6513 25.833 46.7835L27.2974 53.9992H29.0202L27.5988 47.0465L27.5558 47.0128Z" fill="#DE7F29"/>
<path d="M59.4041 16.6984L57.9224 16.1891C57.0287 15.8821 56.0458 15.9511 55.2051 16.3801C54.3645 16.8087 53.7395 17.5594 53.4777 18.4558L52.4613 21.9533C52.2167 22.7909 52.3087 23.6891 52.7174 24.4617C53.1266 25.234 53.8211 25.8226 54.6579 26.1046L56.1396 26.6056L54.1237 35.3234H50.5059V40.4168H53.9515V53.9992H55.6742V36.2655L59.9812 17.6828V17.6832C60.0731 17.2576 59.8239 16.8324 59.404 16.6983L59.4041 16.6984Z" fill="#DE7F29"/>
<path d="M42.4509 47.013H42.3647L40.9434 53.9994H42.6662L44.139 46.7838C43.5668 46.6561 42.9669 46.7375 42.4509 47.013V47.013Z" fill="#DE7F29"/>
<path d="M47.9211 29.3811H35.8615V26.5714C38.3039 25.9033 40.2046 24.0104 40.8576 21.5967C41.8913 17.5645 38.17 15.3236 35.0001 18.0738C31.8214 15.3148 28.109 17.5815 29.1426 21.5967C29.7956 24.0104 31.6964 25.9034 34.1387 26.5714V29.3811H22.0792C21.6035 29.3811 21.2178 29.7612 21.2178 30.23V45.1532C21.2178 45.3783 21.3085 45.5943 21.47 45.7535C21.6316 45.9126 21.8507 46.0021 22.0792 46.0021C24.3619 46.0021 24.5857 45.0175 26.3862 45.0175C28.1866 45.0175 28.3758 46.0021 30.6931 46.0021C32.5882 46.0021 33.0362 45.3483 34.1387 45.1024V52.301H31.5545V53.9988H38.4457V52.301H35.8615V45.1024C36.964 45.34 37.4205 46.0021 39.3071 46.0021C41.6244 46.0021 41.7794 45.0175 43.6141 45.0175C45.4488 45.0175 45.6038 46.0021 47.9211 46.0021C48.1495 46.0021 48.3687 45.9126 48.5302 45.7535C48.6917 45.5943 48.7825 45.3783 48.7825 45.1532V30.23C48.7825 30.0049 48.6917 29.7889 48.5302 29.6297C48.3687 29.4706 48.1495 29.3811 47.9211 29.3811Z" fill="#DE7F29"/>
</svg>
