<svg width="190" height="27" viewBox="0 0 190 27" fill="none" xmlns="http://www.w3.org/2000/svg">
<path d="M90.3969 23.123C90.0971 22.8724 89.4572 22.9122 89.1747 22.9634C88.3179 22.9634 87.3034 22.8861 84.5363 22.8861H59.9046C57.1467 22.8861 41.2888 23.0132 39.5288 23.0132C37.7688 23.0132 28.3883 22.9769 25.5216 23.0132C23.2282 23.0422 12.5661 22.8494 7.52167 22.7494C7.70927 22.548 8.15067 22.0608 8.41552 21.7231C8.74657 21.301 8.84589 20.9865 8.63898 20.7465C8.43207 20.5065 8.28494 20.3078 7.38925 21.4003C6.49355 22.4928 5.15462 22.8735 4.35181 22.8735H2.53929C3.46624 22.4349 4.8484 20.8789 4.81529 20.3409C4.78219 19.803 4.61666 19.4388 4.07042 20.134C3.52418 20.8292 2.08416 22.0624 0.776494 22.6004C-0.531174 23.1384 -0.100863 23.6763 1.42199 24.1564C2.94485 24.6364 3.46626 25.2985 4.25251 25.9772C5.03877 26.6558 5.21257 26.8131 5.39465 26.5317C5.57673 26.2503 5.48569 25.9441 5.01394 25.3399C4.63654 24.8565 3.9188 24.2666 3.60711 24.0321H6.48725C6.74933 24.1866 7.54 24.7705 8.606 25.8696C9.9385 27.2434 9.77297 25.9358 9.29294 25.2075C8.90892 24.6248 8.46093 24.1811 8.28494 24.0321C12.705 24.0394 22.6933 24.0496 27.2855 24.0321C33.0257 24.0102 56.705 23.9936 62.8599 24.0321C69.0147 24.0705 85.8948 24.0321 88.8983 24.0321C91.9018 24.0321 90.7716 23.4363 90.3969 23.123Z" fill="#FB8F2C"/>
<path fill-rule="evenodd" clip-rule="evenodd" d="M96.7232 21.439C102.312 18.6587 106.553 17.6196 108.575 17.3107C110.597 17.0018 110.048 15.9025 108.648 15.2919C107.248 14.6813 104.215 13.4564 98.4674 17.4964C99.4693 16.2182 101.513 14.7163 103.376 13.3472C104.581 12.4612 105.711 11.6308 106.434 10.9527C108.273 9.22666 108.558 8.88525 107.553 8.3352C106.547 7.78516 104.442 7.57651 100.061 11.5217C101.692 8.33521 102.09 6.95061 101.995 4.78835C101.901 2.62608 99.1123 3.04337 96.3621 9.54912C96.7034 5.33841 96.71 3.2124 95.6188 0.702799C94.5277 -1.80681 92.7664 3.00976 92.7508 5.65966C92.7383 7.77957 92.7456 9.48381 92.7508 10.0709C92.3299 9.00059 91.1016 6.40474 89.5553 4.5841C87.6224 2.30831 86.204 3.53973 87.1392 6.85989C87.8874 9.51602 89.1657 11.5829 89.7113 12.2844C88.854 11.5362 86.7216 9.74672 85.0506 8.57453C82.9618 7.1093 80.343 7.8575 81.0132 8.91746C81.3807 9.49852 83.2659 10.9555 85.2744 12.5079C86.9298 13.7873 88.669 15.1315 89.7113 16.1033C92.0182 18.2544 91.7688 18.4727 89.493 16.8516C87.2172 15.2304 84.3177 14.0925 81.0132 14.7005C77.7088 15.3084 78.7531 16.758 82.2136 17.4595C85.674 18.1609 91.3635 20.3744 93.4366 21.7461C93.4915 21.7774 93.5461 21.8103 93.6012 21.8436C94.2048 22.2077 94.8787 22.6144 96.7232 21.439ZM105.938 9.54912C105.289 9.96715 100.898 13.6563 98.7832 15.4487C99.46 14.2542 100.77 13.0145 102.452 11.4217C102.746 11.1438 103.051 10.8552 103.366 10.5542C105.486 8.52777 106.748 9.02657 105.938 9.54912ZM96.2424 15.8072C97.2344 13.973 99.3868 9.84024 100.061 7.9822C100.14 7.7632 100.218 7.54989 100.293 7.34526L100.294 7.3433L100.295 7.34089L100.296 7.33845L100.296 7.33719C101.015 5.37656 101.439 4.21891 99.8743 6.51697C98.1441 9.05775 96.3827 12.9702 96.2424 15.8072ZM95.276 5.86229C95.0017 9.39132 94.6421 12.6533 94.4966 13.8431C94.2576 11.8012 93.8762 7.075 94.2628 4.50616C94.746 1.29511 95.6188 1.45099 95.276 5.86229ZM93.1872 16.5866C93.0261 15.3396 92.3828 12.1347 91.0985 9.29156C89.493 5.73759 87.8562 3.71119 88.2771 5.53495C88.698 7.3587 90.0827 11.4756 93.1872 16.5866ZM91.3011 16.4151C88.7822 14.4324 84.5153 10.8399 82.6967 9.29156C82.3776 9.02016 82.9929 9.15127 83.7567 9.41626C84.5205 9.68125 85.7363 10.1956 87.9186 12.1597C89.8656 13.912 90.2368 14.56 91.0027 15.8971C91.0953 16.0587 91.1936 16.2303 91.3011 16.4151ZM90.6067 19.2123C89.9918 18.67 88.224 17.3215 86.0719 16.2659C83.3817 14.9465 80.6916 15.7535 82.5363 16.2659C84.3809 16.7783 88.3649 17.9569 90.6067 19.2123ZM106.312 16.3216C105.028 16.4962 101.485 17.9427 99.8743 18.6441C100.965 17.4283 102.945 16.3216 105.455 15.8072C107.964 15.2928 107.918 16.1033 106.312 16.3216Z" fill="#FB8F2C"/>
<path d="M99.5125 23.1231C100.262 22.8104 101.411 22.7167 101.693 22.7679H105.675C108.442 22.7679 127.247 22.8862 130.005 22.8862C132.763 22.8862 148.621 23.0132 150.381 23.0132C152.141 23.0132 161.521 22.9769 164.388 23.0132C166.681 23.0422 177.608 22.8494 182.652 22.7494C182.465 22.548 182.023 22.0608 181.758 21.7231C181.427 21.301 181.328 20.9865 181.535 20.7465C181.742 20.5065 181.889 20.3079 182.785 21.4003C183.68 22.4928 183.977 22.8735 184.779 22.8735L186.451 22.8736C185.524 22.4349 184.105 20.7198 183.98 20.1954C183.844 19.6241 184.233 19.3609 184.779 20.0562C185.326 20.7514 186.337 22.0625 187.645 22.6005C188.952 23.1384 189.817 23.6714 188.8 24.3965C187.499 25.3232 187.237 25.7121 186.45 26.3908C185.664 27.0694 185.49 27.0776 185.308 26.7962C185.126 26.5148 184.953 26.2086 185.425 25.6044C185.802 25.1211 187.049 24.2667 187.36 24.0321H184.216C183.954 24.1867 183.851 24.3995 182.785 25.4986C181.452 26.8725 181.251 25.6118 181.731 24.8835C182.115 24.3008 182.242 24.1811 182.418 24.0321C177.998 24.0394 167.216 24.0496 162.624 24.0321C156.884 24.0102 133.204 23.9937 127.05 24.0321C120.895 24.0706 103.677 24.2982 100.673 24.2982C97.6696 24.2982 99.0618 23.3111 99.5125 23.1231Z" fill="#FB8F2C"/>
</svg>
