<svg width="18" height="18" viewBox="0 0 18 18" fill="none" xmlns="http://www.w3.org/2000/svg">
<path d="M8.54996 0.266638C8.73757 -0.0889358 9.24681 -0.088937 9.43441 0.266636L11.9339 5.00413C12.0063 5.14126 12.1382 5.23706 12.2909 5.26349L17.569 6.17673C17.9651 6.24527 18.1225 6.72959 17.8423 7.01789L14.109 10.8591C14.001 10.9702 13.9506 11.1252 13.9727 11.2787L14.7351 16.5806C14.7924 16.9785 14.3804 17.2779 14.0196 17.1005L9.21281 14.7369C9.07368 14.6685 8.91069 14.6685 8.77156 14.7369L3.96477 17.1005C3.60399 17.2779 3.19201 16.9785 3.24923 16.5806L4.0117 11.2787C4.03377 11.1252 3.9834 10.9702 3.87534 10.8591L0.142115 7.01789C-0.138082 6.72959 0.0192811 6.24527 0.415424 6.17673L5.69345 5.26349C5.84622 5.23706 5.97808 5.14126 6.05043 5.00414L8.54996 0.266638Z" fill="#FFCA0E"/>
</svg>
