<svg width="58" height="60" viewBox="0 0 58 60" fill="none" xmlns="http://www.w3.org/2000/svg">
<path fill-rule="evenodd" clip-rule="evenodd" d="M22.2594 0.364683C24.9587 1.08233 27.3117 3.07976 28.9001 6.00289C29.7766 7.6155 29.8101 7.78662 29.8101 10.6416C29.8101 13.4663 29.7691 13.6822 28.9403 15.2228C27.9439 17.0748 27.3282 17.8021 25.6238 19.1409C23.6938 20.6565 22.5062 21.0888 19.8915 21.227C17.0682 21.3763 15.4802 20.9432 13.2094 19.4042C10.4786 17.5536 8.90643 14.8345 8.68257 11.5748C8.38607 7.25762 10.1664 3.73219 13.7992 1.44371C15.9932 0.0615101 19.4562 -0.380179 22.2594 0.364683ZM37.6122 0.423162C37.7024 0.657615 37.7761 2.23411 37.7761 3.92649V7.00349H38.8482H39.9202L39.9958 3.56753L40.0714 0.131577H40.7465H41.4216L41.5566 3.50016L41.6916 6.86875L42.7043 6.95229L43.7169 7.0361V3.81897C43.7169 0.472478 43.9607 -0.277504 44.9286 0.0930404C45.2753 0.225628 45.3371 1.10469 45.3371 5.89967C45.3371 9.00713 45.2299 11.8305 45.0989 12.1736C44.9677 12.5167 44.5459 13.1109 44.1617 13.4941L43.4625 14.1904L43.3872 26.7898L43.3119 39.3888L42.5541 40.0391C41.5266 40.9211 39.9664 40.9211 38.9389 40.0391L38.1812 39.3888L38.1058 26.7717L38.0305 14.1543L37.2434 13.341C36.7951 12.878 36.3363 12.0057 36.1775 11.3153C35.8227 9.76978 35.8008 1.60271 36.1492 0.688067C36.4446 -0.0872466 37.3527 -0.251633 37.6122 0.423162ZM53.1576 0.395674C53.5826 0.615036 54.1843 1.11655 54.4945 1.51C55.0538 2.21956 55.0584 2.37344 55.0584 20.6697V39.1139L54.2691 39.9016C53.1576 41.0108 51.5584 41.0108 50.447 39.9016L49.6577 39.1139V32.1046C49.6577 25.1949 49.6658 25.0928 50.2315 24.9136C50.5915 24.7996 50.8917 24.8683 51.0376 25.0976C51.165 25.2987 51.2714 28.3954 51.2738 31.9793C51.2773 37.5396 51.34 38.5572 51.7021 38.9186C51.9357 39.1514 52.2854 39.3419 52.4793 39.3419C53.3785 39.3419 53.4468 38.6706 53.3747 30.551L53.3031 22.499L51.6084 22.3373C50.343 22.2166 49.7354 22.0118 49.2108 21.5288C47.8325 20.2606 47.7674 19.7847 47.7674 10.983C47.7674 3.58397 47.8139 2.72997 48.2629 1.87893C49.1381 0.220238 51.4564 -0.482314 53.1576 0.395674ZM16.2595 2.09775C12.1512 3.56188 9.54776 8.00086 10.3487 12.1763C10.5277 13.1109 10.8666 14.2392 11.1015 14.6839C11.9011 16.1978 13.7201 17.9767 15.2663 18.7566C16.6321 19.4454 17.0896 19.5341 19.259 19.5306C22.2561 19.5257 23.6444 18.9763 25.6065 17.0184C27.6433 14.9854 28.1902 13.6073 28.1891 10.5068C28.1885 8.34096 28.0911 7.76452 27.5569 6.76392C26.6828 5.12679 24.5161 3.03826 22.9877 2.35943C21.1892 1.56094 18.1022 1.44074 16.2595 2.09775ZM49.9747 2.23735C49.3982 2.84989 49.3876 3.01051 49.3876 11.1482C49.3876 16.0386 49.4959 19.6373 49.652 19.9284C49.9688 20.5188 51.2868 21.0168 52.5333 21.0168H53.4382V11.8543C53.4382 3.05093 53.4171 2.67068 52.8981 2.15273C52.146 1.40221 50.7224 1.44344 49.9747 2.23735ZM37.7761 10.1233C37.7761 11.4339 37.8798 11.7298 38.5862 12.4347L39.3963 13.2432V25.1809C39.3963 31.7467 39.4744 37.5081 39.5697 37.984C39.779 39.0274 40.7673 39.6144 41.4135 39.0792C41.7735 38.7808 41.8267 37.1176 41.8267 26.1454V13.5539L42.7718 12.5827C43.6216 11.7095 43.7169 11.4605 43.7169 10.1161V8.62041H40.7465H37.7761V10.1233ZM18.0636 12.528C18.8813 13.3965 19.7632 13.3833 20.5935 12.4897C21.3256 11.702 22.1141 11.7726 22.1141 12.6263C22.1141 13.4351 20.3602 14.8189 19.3368 14.8175C18.1975 14.8162 16.7712 13.929 16.5603 13.0907C16.2249 11.7575 17.0483 11.4495 18.0636 12.528ZM23.7022 24.2412C30.2281 26.1807 35.4808 32.6147 35.4808 38.6682V40.5546H19.2787H3.07664L2.98888 39.3419C2.85603 37.5091 3.41203 35.1156 4.47327 32.9516C5.57528 30.7041 6.53336 29.5614 7.19927 29.6999C7.85491 29.8363 7.70126 30.7054 6.77396 32.1084C5.69733 33.7374 4.87103 35.9631 4.66337 37.7924L4.48758 39.3419H19.2415H33.9956V38.427C33.9956 37.2087 33.0843 34.3216 32.2032 32.7481C30.4901 29.6894 27.0053 26.9205 23.4643 25.8045C21.537 25.1971 17.2143 25.1683 15.2115 25.7493C13.7544 26.1721 11.5271 27.2387 10.7726 27.8752C9.53102 28.9227 8.36582 28.2029 9.44569 27.0555C10.559 25.873 14.6166 24.079 17.2535 23.6036C18.602 23.3603 21.8041 23.6769 23.7022 24.2412ZM10.5096 45.6299C11.1258 46.8404 11.7134 47.9183 11.815 48.0253C11.9165 48.1323 12.9691 48.3616 14.154 48.5349C16.8376 48.927 17.5235 49.1758 17.5235 49.7576C17.5235 50.0093 16.6599 51.1042 15.6044 52.1905C13.9026 53.9422 13.7063 54.2497 13.8726 54.9059C14.1556 56.0213 14.5499 58.5297 14.5515 59.2249C14.5542 60.2301 13.9199 60.191 11.4564 59.0339C10.1718 58.4302 8.9526 57.9365 8.74738 57.9365C8.54215 57.9365 7.32294 58.4302 6.03839 59.0339C4.75356 59.6372 3.53786 60.0681 3.33669 59.9911C2.95621 59.8456 2.96917 59.5521 3.50519 56.1153C3.81924 54.1023 3.77576 54.005 1.61116 51.8814C-0.845073 49.4725 -0.662799 49.1197 3.34074 48.5349C4.52565 48.3616 5.57474 48.1323 5.67222 48.0253C5.7697 47.9183 6.35649 46.8382 6.97595 45.6247C8.59805 42.4494 8.89023 42.4499 10.5096 45.6299ZM30.7622 45.6299C31.3785 46.8404 31.9661 47.9183 32.0676 48.0253C32.1691 48.1323 33.2217 48.3616 34.4066 48.5349C37.0902 48.927 37.7761 49.1758 37.7761 49.7576C37.7761 50.0093 36.9126 51.1042 35.857 52.1905C34.1552 53.9422 33.9589 54.2497 34.1253 54.9059C34.4083 56.0213 34.8025 58.5297 34.8041 59.2249C34.8068 60.2301 34.1725 60.191 31.709 59.0339C30.4244 58.4302 29.2052 57.9365 29 57.9365C28.7948 57.9365 27.5756 58.4302 26.291 59.0339C23.8275 60.191 23.1929 60.2301 23.1964 59.2249C23.1986 58.5148 23.6854 55.3357 23.9001 54.6278C24.0025 54.2909 23.4778 53.5644 22.1346 52.1819C21.0837 51.1004 20.2239 50.0093 20.2239 49.7576C20.2239 49.1758 20.9098 48.927 23.5934 48.5349C24.7783 48.3616 25.8274 48.1323 25.9248 48.0253C26.0223 47.9183 26.6091 46.8382 27.2286 45.6247C28.8507 42.4494 29.1428 42.4499 30.7622 45.6299ZM51.0149 45.6299C51.6311 46.8404 52.2187 47.9183 52.3202 48.0253C52.4217 48.1323 53.4743 48.3616 54.6593 48.5349C58.6628 49.1197 58.8451 49.4725 56.3888 51.8814C54.241 53.9885 54.1586 54.1599 54.481 55.8609C55.0208 58.7081 55.0735 59.834 54.6744 59.987C54.4673 60.0663 53.2464 59.6372 51.9616 59.0339C50.6771 58.4302 49.4578 57.9365 49.2526 57.9365C49.0474 57.9365 47.8282 58.4302 46.5436 59.0339C44.0801 60.191 43.4455 60.2301 43.449 59.2249C43.4512 58.5148 43.9381 55.3357 44.1527 54.6278C44.2551 54.2909 43.7304 53.5644 42.3873 52.1819C41.3363 51.1004 40.4765 50.0093 40.4765 49.7576C40.4765 49.1758 41.1624 48.927 43.846 48.5349C45.0309 48.3616 46.08 48.1323 46.1775 48.0253C46.2749 47.9183 46.8617 46.8382 47.4812 45.6247C49.1033 42.4494 49.3955 42.4499 51.0149 45.6299ZM8.10037 46.977C7.78794 47.4815 7.53222 48.0154 7.53222 48.163C7.53222 48.311 7.29027 48.7389 6.99431 49.1143C6.54551 49.6837 6.14262 49.8282 4.564 49.9864C3.39124 50.1039 2.67159 50.2976 2.67159 50.4957C2.67159 50.6714 3.25676 51.3907 3.97208 52.0935L5.2723 53.3719L5.04169 55.2982C4.91504 56.3579 4.86995 57.3776 4.94205 57.5646C5.0371 57.8123 5.51722 57.6894 6.71186 57.1119C7.61323 56.6761 8.52946 56.3196 8.74738 56.3196C8.9653 56.3196 9.87423 56.6726 10.767 57.1043C11.694 57.5525 12.459 57.7783 12.5503 57.6309C12.7004 57.3884 12.4922 55.0646 12.2389 54.1553C12.1722 53.9158 12.7552 53.0973 13.6272 52.2059C14.454 51.3608 15.0632 50.5604 14.9806 50.4273C14.8982 50.2939 14.0657 50.1033 13.1306 50.0034C12.1955 49.9034 11.3033 49.7374 11.1477 49.6347C10.9924 49.5318 10.5202 48.809 10.0984 48.0283C9.00283 46.0004 8.77843 45.8821 8.10037 46.977ZM27.8005 47.762C27.2939 48.6891 26.753 49.5318 26.5983 49.6347C26.4436 49.7374 25.5535 49.9031 24.6206 50.0028C23.6079 50.1112 22.9242 50.3114 22.9242 50.4998C22.9242 50.6733 23.5094 51.3907 24.2247 52.0935L25.5249 53.3719L25.2943 55.2982C25.1677 56.3579 25.1226 57.3776 25.1947 57.5646C25.2897 57.8123 25.7698 57.6894 26.9645 57.1119C27.8659 56.6761 28.7821 56.3196 29 56.3196C29.2179 56.3196 30.1341 56.6761 31.0355 57.1119C32.2302 57.6894 32.7103 57.8123 32.8053 57.5646C32.8774 57.3776 32.8323 56.3579 32.7057 55.2982L32.4751 53.3719L33.7753 52.0935C34.4906 51.3907 35.0758 50.6733 35.0758 50.4998C35.0758 50.31 34.3715 50.109 33.31 49.9955C31.3606 49.7872 31.3685 49.7929 30.1371 47.7143C29.6602 46.9094 29.1466 46.2114 28.9957 46.1634C28.8447 46.1155 28.3068 46.8347 27.8005 47.762ZM48.0531 47.762C47.5465 48.6891 47.0057 49.5318 46.8509 49.6347C46.6962 49.7374 45.8045 49.9034 44.8694 50.0034C43.9343 50.1033 43.1018 50.2941 43.0189 50.4278C42.9362 50.5615 43.4968 51.305 44.2645 52.0803L45.6603 53.49L45.4964 55.5313C45.4062 56.654 45.4008 57.6409 45.4846 57.7242C45.568 57.8077 46.3611 57.5258 47.2463 57.0979C48.1317 56.6699 49.0347 56.3196 49.2526 56.3196C49.4705 56.3196 50.3868 56.6761 51.2881 57.1119C52.4828 57.6894 52.9629 57.8123 53.058 57.5646C53.1301 57.3776 53.085 56.3579 52.9583 55.2982L52.7277 53.3719L54.0279 52.0935C54.7432 51.3907 55.3284 50.6714 55.3284 50.4957C55.3284 50.2979 54.6125 50.1044 53.4495 49.9877C51.3778 49.7802 51.2387 49.6786 50.205 47.6179C49.8297 46.8698 49.3992 46.2168 49.2483 46.1669C49.0973 46.1171 48.5594 46.8347 48.0531 47.762Z" fill="#FB8F2C"/>
</svg>
