<svg width="70" height="70" viewBox="0 0 70 70" fill="none" xmlns="http://www.w3.org/2000/svg">
<rect x="0.5" y="0.5" width="69" height="69" rx="1.5" stroke="#FB8F2C"/>
<path d="M10 31.049L10.4297 47.495C11.1719 47.7116 11.8045 47.7116 12.3828 47.4719C12.3905 47.4719 12.3985 47.4643 12.3985 47.4643C12.4376 47.4487 12.4766 47.4256 12.5234 47.41C12.531 47.4024 12.531 47.4024 12.5391 47.4024C12.7734 47.2863 13.0001 47.116 13.2188 46.9149C13.3674 46.7757 13.6018 46.7757 13.75 46.8994C14.7266 47.7431 15.625 47.7431 16.6563 46.8918C16.664 46.8842 16.672 46.8762 16.6877 46.8762C16.7501 46.8299 16.8283 46.8064 16.9144 46.8064C16.9535 46.8064 17.0002 46.814 17.0393 46.8296L17.0469 46.8372C17.086 46.8527 17.1251 46.8759 17.1641 46.9146H17.1875C17.9611 47.6266 18.8986 47.6266 20.1639 46.899C20.2968 46.8216 20.4764 46.8292 20.6013 46.9222C21.484 47.5644 22.3515 47.5644 23.3433 46.9146C23.4839 46.814 23.6792 46.8296 23.8121 46.9301C24.7339 47.6729 25.5699 47.6729 26.4136 46.9377C26.5541 46.8216 26.7575 46.814 26.9057 46.9222C27.968 47.6885 28.8903 47.6961 29.804 46.9377C29.9369 46.8292 30.1399 46.814 30.2804 46.9146C31.46 47.6961 32.3274 47.7116 33.0852 46.9609C33.2258 46.8292 33.4368 46.8061 33.5931 46.9146C34.7182 47.6809 35.6477 47.6885 36.5151 46.9377C36.648 46.8292 36.851 46.814 36.9995 46.9146C38.0699 47.6266 39.0699 47.6266 40.0464 46.9222C40.187 46.8216 40.3903 46.8216 40.5309 46.9298C41.4998 47.6881 42.3354 47.6961 43.1714 46.9453C43.3043 46.8216 43.5153 46.8137 43.6635 46.9142C44.812 47.7268 45.6009 47.7424 46.2964 46.9761C46.4212 46.8368 46.6246 46.8057 46.7885 46.8987C48.1243 47.657 49.1165 47.6802 49.9058 46.945C50.0387 46.8289 50.2497 46.8133 50.3979 46.9139C51.3745 47.5793 52.1871 47.6336 52.9056 47.0918C52.968 47.0455 53.0228 46.9989 53.0852 46.9446C53.2257 46.8209 53.4368 46.813 53.5853 46.9215C54.6714 47.7109 55.5775 47.7185 56.4369 46.9446C56.5151 46.8748 56.6089 46.8441 56.7104 46.8441C56.8042 46.8441 56.898 46.8828 56.9838 46.9526C57.7727 47.6722 58.601 47.8581 59.5696 47.5099L60 31.0488L10 31.049Z" fill="#FB8F2C"/>
<path d="M13.5058 47.7102C13.3495 47.8339 13.1776 47.9424 13.0137 48.0429V50.5582C13.0137 50.8059 13.209 50.9994 13.4591 50.9994H14.7949C14.9745 50.9994 15.1464 50.8833 15.2088 50.7054L16.154 48.1203C15.2556 48.4762 14.3652 48.3449 13.5058 47.7102L13.5058 47.7102Z" fill="#FB8F2C"/>
<path d="M53.7832 47.9588L54.7912 50.7061C54.8536 50.8841 55.0099 51.0002 55.2052 51.0002H56.541C56.783 51.0002 56.9783 50.8067 56.9783 50.559V47.9432C56.8925 47.889 56.7987 47.8271 56.7049 47.7573C56.0175 48.2604 55.0332 48.5779 53.7832 47.9587L53.7832 47.9588Z" fill="#FB8F2C"/>
<path d="M43.3062 30.4985H57.7669L58.47 28.5637C58.5405 28.3547 58.5091 28.1381 58.3842 27.9522C58.3218 27.8672 58.2513 27.805 58.1889 27.7663L58.1265 27.72H58.1031C58.0173 27.6813 57.9235 27.6658 57.8297 27.6658L43.3922 27.6661C43.1735 27.6661 42.9702 27.7667 42.853 27.9294C42.7201 28.0918 42.681 28.3088 42.7281 28.5254L43.3062 30.4985Z" fill="#FB8F2C"/>
<path d="M58.1012 27.0936C57.9058 23.5024 55.1481 20.6314 51.6482 20.1439V19.0293C51.6482 18.4564 51.1795 18 50.6092 18C50.0309 18 49.5702 18.4644 49.5702 19.0293V20.1439C46.0623 20.6238 43.3125 23.5029 43.1173 27.0936L43.1016 27.3413H58.1176L58.1012 27.0936Z" fill="#FB8F2C"/>
<path d="M39.6952 30.6305L42.1799 26.6912H28.1094L30.1406 30.6305H39.6952Z" fill="#FB8F2C"/>
<path d="M12.672 30.4992H25.3202C25.7422 30.4992 26.0938 30.1585 26.0938 29.7329C26.0938 29.3072 25.7499 28.9666 25.3202 28.9666L12.672 28.9669C12.25 28.9669 11.8984 29.3076 11.8984 29.7332C11.8984 30.1589 12.25 30.4992 12.672 30.4992V30.4992Z" fill="#FB8F2C"/>
<path d="M25.2402 28.418C25.0996 25.3766 22.7716 22.9464 19.7871 22.5674H19.8105V21.515C19.8105 21.0662 19.4433 20.7024 18.9902 20.7024C18.5371 20.7024 18.1699 21.0662 18.1699 21.515V22.5674H18.1933C15.2168 22.9388 12.8884 25.369 12.7479 28.418L12.7402 28.6657H25.2482L25.2402 28.418Z" fill="#FB8F2C"/>
<path d="M31.1716 24.9656C31.0467 25.2907 31.2106 25.6546 31.5388 25.7782C31.6093 25.8093 31.6874 25.8169 31.7655 25.8169C32.0233 25.8169 32.2657 25.6546 32.3591 25.4144C32.7421 24.4395 32.4373 23.557 32.1952 22.8449C32.0547 22.4348 31.9922 22.1947 32.0466 22.1173C32.2029 22.0399 32.3124 21.9162 32.3668 21.7535C32.4216 21.5911 32.4135 21.4208 32.3354 21.2736C32.2339 21.057 32.0072 20.9177 31.7652 20.9177C31.6714 20.9177 31.5775 20.9409 31.4917 20.9796C30.398 21.5058 30.7572 22.5506 30.9916 23.2471C31.1873 23.8203 31.3902 24.4083 31.1716 24.9657L31.1716 24.9656Z" fill="#FB8F2C"/>
<path d="M34.5407 24.9656C34.4158 25.2907 34.5798 25.6546 34.908 25.7782C34.9784 25.8093 35.0565 25.8169 35.1347 25.8169C35.3924 25.8169 35.6348 25.6546 35.7283 25.4144C36.1112 24.4395 35.8064 23.557 35.5644 22.8449C35.4238 22.4348 35.3614 22.1947 35.4158 22.1173C35.572 22.0399 35.6815 21.9162 35.7359 21.7535C35.7907 21.5911 35.7827 21.4208 35.7046 21.2736C35.6031 21.057 35.3764 20.9177 35.1343 20.9177C35.0405 20.9177 34.9467 20.9409 34.8609 20.9796C33.7671 21.5058 34.1264 22.5506 34.3607 23.2471C34.5487 23.8203 34.7517 24.4083 34.5407 24.9657L34.5407 24.9656Z" fill="#FB8F2C"/>
<path d="M37.8962 24.9656C37.7713 25.2907 37.9352 25.6546 38.2634 25.7782C38.3339 25.8093 38.412 25.8169 38.4901 25.8169C38.7479 25.8169 38.9903 25.6546 39.0837 25.4144C39.4667 24.4395 39.1619 23.557 38.9198 22.8449C38.7793 22.4348 38.7168 22.1947 38.7712 22.1173C38.9275 22.0399 39.037 21.9162 39.0914 21.7535C39.1462 21.5911 39.1381 21.4208 39.06 21.2736C38.9585 21.057 38.7318 20.9177 38.4898 20.9177C38.396 20.9177 38.3021 20.9409 38.2163 20.9796C37.1226 21.5058 37.4818 22.5506 37.7162 23.2471C37.9119 23.8203 38.1152 24.4083 37.8962 24.9657L37.8962 24.9656Z" fill="#FB8F2C"/>
</svg>
