<svg width="70" height="70" viewBox="0 0 70 70" fill="none" xmlns="http://www.w3.org/2000/svg">
<rect x="0.5" y="0.5" width="69" height="69" rx="1.5" stroke="#FB8F2C"/>
<path d="M21.7345 28.4289C22.0794 28.0318 22.5816 27.8043 23.1126 27.8043C24.0119 27.8043 24.7649 28.4387 24.9039 29.3127L25.5551 33.4177H27.7032V30.077C27.7032 29.8553 27.8868 29.6753 28.1131 29.6753H36.7274L36.7271 23.4622H10V33.4179H21.9071L21.3234 29.8732C21.2383 29.3547 21.3882 28.8283 21.7353 28.429L21.7345 28.4289Z" fill="#DE7F29"/>
<path d="M16.1746 19.745V17.607C16.1746 17.3853 15.9911 17.2053 15.7648 17.2053C15.5385 17.2053 15.3549 17.3853 15.3549 17.607V19.7447C13.8125 19.929 12.5862 21.138 12.4004 22.6585H19.1292C18.9433 21.138 17.717 19.9291 16.1747 19.745H16.1746Z" fill="#DE7F29"/>
<path d="M31.3719 19.7448V17.4017C31.3719 17.1799 31.1883 17 30.962 17C30.7357 17 30.5522 17.1799 30.5522 17.4017V19.7445C29.0094 19.9286 27.7834 21.1375 27.5977 22.6583H34.3264C34.1406 21.1378 32.9146 19.9289 31.3719 19.7448H31.3719Z" fill="#DE7F29"/>
<path d="M42.7715 43.3038C43.1708 42.9729 43.6858 42.7733 44.2475 42.7733H53.8846L55.2415 34.2212H42.7715V43.3038Z" fill="#DE7F29"/>
<path d="M23.7723 19.7447V17.5299C23.7723 17.3081 23.5887 17.1282 23.3624 17.1282C23.1361 17.1282 22.9525 17.3081 22.9525 17.5299V19.7447C21.4098 19.9288 20.1838 21.1377 19.998 22.6585H26.7268C26.541 21.1377 25.315 19.9288 23.7723 19.7447H23.7723Z" fill="#DE7F29"/>
<path d="M28.5215 30.4783H52.3993V33.4172H28.5215V30.4783Z" fill="#DE7F29"/>
<path d="M57.9412 21.5801C56.2832 21.197 55.0495 22.3617 54.9975 22.4115C54.841 22.5622 54.5913 22.5652 54.4308 22.4183C54.3706 22.3631 52.9306 21.0712 51.0176 21.5768C49.0336 22.1013 48.4624 24.081 48.4568 24.1009C48.4244 24.2177 48.3399 24.314 48.2271 24.3629C48.1144 24.4119 47.985 24.4086 47.875 24.3534C47.721 24.2762 46.3295 23.621 44.9292 24.3503C43.8747 24.8995 43.2146 26.0414 43.2467 27.2598C43.2503 27.3968 43.1825 27.5261 43.0667 27.603C42.9509 27.6798 42.8033 27.6935 42.6747 27.6391C42.3195 27.4887 41.0528 27.0446 39.6775 27.638C38.5273 28.1343 37.9616 29.0852 37.709 29.6753H52.8111C53.0374 29.6753 53.221 29.8553 53.221 30.0771V33.4178H55.3691L56.0204 29.3127C56.159 28.4388 56.9124 27.8043 57.8116 27.8043C58.3426 27.8043 58.8449 28.0318 59.1897 28.4289C59.5365 28.8281 59.6866 29.3546 59.6013 29.8731L59.0175 33.4178L60.0003 33.4175V23.1593C59.8142 22.8254 59.1833 21.8669 57.9414 21.58L57.9412 21.5801Z" fill="#DE7F29"/>
<path d="M57.8112 28.6072C57.3187 28.6072 56.906 28.9556 56.8299 29.4358L54.6405 43.2364C54.6095 43.4319 54.4376 43.5763 54.2353 43.5763H44.2475C43.4336 43.5763 42.7715 44.2293 42.7715 45.0319V53.9999H44.8016V45.9813C44.8016 45.7595 44.9852 45.5795 45.2115 45.5795H53.7608C53.9871 45.5795 54.1707 45.7595 54.1707 45.9813V53.9999H56.2008V47.8751C56.2008 46.287 56.3317 44.6867 56.5897 43.1192L58.7917 29.745C58.8389 29.4592 58.7563 29.1696 58.5652 28.9498C58.3766 28.7321 58.1017 28.6074 57.8115 28.6074L57.8112 28.6072Z" fill="#DE7F29"/>
<path d="M27.0397 42.7725H36.6769C37.2385 42.7725 37.7533 42.9724 38.1529 43.303V34.2202L25.6836 34.2205L27.0397 42.7725Z" fill="#DE7F29"/>
<path d="M38.9707 45.0315V53.9994H41.9509V34.2202H38.9707V45.0315Z" fill="#DE7F29"/>
<path d="M36.6762 43.5763H26.6883C26.4863 43.5763 26.3144 43.4319 26.2832 43.2364L24.0938 29.4358C24.0176 28.9556 23.6049 28.6072 23.1125 28.6072C22.8223 28.6072 22.5475 28.7319 22.3586 28.9493C22.1677 29.1689 22.0851 29.459 22.132 29.7445L24.334 43.1187C24.5921 44.6865 24.7229 46.2866 24.7229 47.8746V53.9994H26.7531V45.9808C26.7531 45.759 26.9367 45.5791 27.163 45.5791H35.7122C35.9385 45.5791 36.1221 45.759 36.1221 45.9808V53.9994H38.1523V45.0315C38.1525 44.2291 37.4904 43.5761 36.6765 43.5761L36.6762 43.5763Z" fill="#DE7F29"/>
</svg>
