<svg width="70" height="70" viewBox="0 0 70 70" fill="none" xmlns="http://www.w3.org/2000/svg">
<rect x="0.5" y="0.5" width="69" height="69" rx="1.5" stroke="#FB8F2C"/>
<path d="M31.4707 24.5047H28.8388C28.6809 24.5047 28.5755 24.6093 28.5755 24.766V26.3333C28.5755 26.49 28.4176 26.6467 28.2597 26.6467H26.5751C26.4172 26.6467 26.2593 26.49 26.2593 26.3333V24.766C26.2593 24.6093 26.1539 24.5047 25.996 24.5047H23.3641C22.9429 24.5047 22.6797 24.8181 22.6797 25.236V28.8928L24.8905 29.2062C26.4169 29.415 27.575 30.7209 27.5225 32.184V32.3929H31.4704C31.8915 32.3929 32.1548 32.0795 32.1548 31.7136L32.1552 25.236C32.1552 24.8705 31.8919 24.5046 31.4707 24.5046L31.4707 24.5047Z" fill="#FB8F2C"/>
<path d="M15.3624 42.58L12.5201 38.7141L12.9937 42.1096C13.0462 42.2662 13.0462 42.4229 12.9412 42.5796L10.151 49.7889C9.78233 50.729 10.0985 51.8263 10.9933 52.3488C11.2037 52.4534 11.3619 52.5055 11.5723 52.5576C12.4671 52.7667 13.4145 52.2967 13.7832 51.4087L15.8361 46.6025L15.4674 42.8412C15.4674 42.7367 15.4149 42.6321 15.3624 42.58L15.3624 42.58Z" fill="#FB8F2C"/>
<path d="M24.7848 30.46L21.2055 29.9899C21.2055 29.9899 18.9422 26.7511 18.6789 26.3332C18.4157 25.9673 18.0999 25.5497 17.7316 24.975C16.8893 23.7736 12.8888 23.4602 12.6256 25.9152C12.4678 27.3779 11.8362 34.8485 11.8362 34.8485C11.7837 35.3185 11.9416 35.8411 12.2049 36.2066L16.4161 41.8486C16.6265 42.1099 16.7318 42.4232 16.7318 42.7366L17.4688 50.5205C17.5742 51.5132 18.1532 52.4533 19.1534 52.61C19.3638 52.6621 19.5746 52.6621 19.7325 52.61C20.6798 52.4533 21.4695 51.6698 21.4171 50.7293L20.9959 41.5351C20.9959 41.2738 20.8905 41.0125 20.7855 40.8037C20.7855 40.8037 18.259 36.0498 18.101 35.7364C17.9957 35.5276 17.9957 35.2139 18.0485 35.0051C18.0485 34.7963 18.3118 31.5571 18.3118 31.5571L18.9434 32.4973C19.2066 32.8631 19.6278 33.124 20.1014 33.1765L24.523 33.7512H24.9967C25.7861 33.6466 26.3652 33.0198 26.418 32.1838C26.3115 31.2958 25.6271 30.5645 24.7848 30.4599L24.7848 30.46Z" fill="#FB8F2C"/>
<path d="M19.2567 19.8554C19.2567 21.7598 17.7014 23.3034 15.7829 23.3034C13.864 23.3034 12.3086 21.7598 12.3086 19.8554C12.3086 17.9515 13.864 16.4075 15.7829 16.4075C17.7014 16.4075 19.2567 17.9515 19.2567 19.8554Z" fill="#FB8F2C"/>
<path d="M59.2098 17.6611L44.6815 13.0639C43.9445 12.8026 43.1551 13.3773 43.1551 14.1611V16.3031H36.0487C35.4171 16.3031 34.8906 16.8256 34.8906 17.4524V51.5654C34.8906 52.1921 35.4172 52.7146 36.0487 52.7146H43.1551V54.8566C43.1551 55.6401 43.892 56.1626 44.6815 55.9538L59.2098 51.3041C59.6835 51.1474 59.9992 50.7294 59.9992 50.2068V18.7581C59.9992 18.2355 59.6834 17.7654 59.2098 17.6608V17.6611ZM43.1549 50.2592H37.312V18.7059H43.1549V50.2592ZM47.9977 35.8408C47.2083 35.8408 46.6292 35.214 46.6292 34.4826C46.6292 33.6992 47.2607 33.1245 47.9977 33.1245C48.7871 33.1245 49.3662 33.7513 49.3662 34.4826C49.4191 35.2661 48.7872 35.8408 47.9977 35.8408Z" fill="#FB8F2C"/>
</svg>
